HIERARCHY
ROOT Hips
{
  OFFSET 0.000000 0.000000 0.000000
  CHANNELS 6 Xposition Yposition Zposition Zrotation Xrotation Yrotation
  JOINT LeftUpLeg
  {
    OFFSET 8.642590 1.953980 -2.388350
    CHANNELS 3 Zrotation Xrotation Yrotation
    JOINT LeftLeg
    {
      OFFSET 43.770199 0.000000 0.000000
      CHANNELS 3 Zrotation Xrotation Yrotation
      JOINT LeftFoot
      {
        OFFSET 40.623798 0.000000 0.000000
        CHANNELS 3 Zrotation Xrotation Yrotation
        JOINT LeftToeBase
        {
          OFFSET 12.724200 0.000000 0.000000
          CHANNELS 3 Zrotation Xrotation Yrotation
          End Site
          {
            OFFSET 0.000000 0.000000 0.000000
          }
        }
      }
    }
  }
  JOINT RightUpLeg
  {
    OFFSET -8.224900 1.953980 -2.593360
    CHANNELS 3 Zrotation Xrotation Yrotation
    JOINT RightLeg
    {
      OFFSET 43.565300 0.000000 0.000000
      CHANNELS 3 Zrotation Xrotation Yrotation
      JOINT RightFoot
      {
        OFFSET 40.623798 0.000000 0.000000
        CHANNELS 3 Zrotation Xrotation Yrotation
        JOINT RightToeBase
        {
          OFFSET 12.724200 0.000000 0.000000
          CHANNELS 3 Zrotation Xrotation Yrotation
          End Site
          {
            OFFSET 0.000000 0.000000 0.000000
          }
        }
      }
    }
  }
  JOINT Spine
  {
    OFFSET 0.165834 0.877140 6.613490
    CHANNELS 3 Zrotation Xrotation Yrotation
    JOINT Spine1
    {
      OFFSET 7.389630 0.000017 0.000000
      CHANNELS 3 Zrotation Xrotation Yrotation
      JOINT Spine2
      {
        OFFSET 11.944500 0.000011 0.000000
        CHANNELS 3 Zrotation Xrotation Yrotation
        JOINT Spine3
        {
          OFFSET 14.725400 0.000042 0.000000
          CHANNELS 3 Zrotation Xrotation Yrotation
          JOINT Spine4
          {
            OFFSET 10.967900 0.000000 0.000000
            CHANNELS 3 Zrotation Xrotation Yrotation
            JOINT RightShoulder
            {
              OFFSET 2.466160 -1.665300 3.696510
              CHANNELS 3 Zrotation Xrotation Yrotation
              JOINT RightArm
              {
                OFFSET 13.001200 0.000000 0.000000
                CHANNELS 3 Zrotation Xrotation Yrotation
                JOINT RightForeArm
                {
                  OFFSET 28.784800 0.000015 0.000000
                  CHANNELS 3 Zrotation Xrotation Yrotation
                  JOINT RightHand
                  {
                    OFFSET 26.568800 0.000015 0.000000
                    CHANNELS 3 Zrotation Xrotation Yrotation
                    End Site
                    {
                      OFFSET 0.000000 0.000000 0.000000
                    }
                  }
                }
              }
            }
            JOINT LeftShoulder
            {
              OFFSET 2.380340 -1.292750 -3.752300
              CHANNELS 3 Zrotation Xrotation Yrotation
              JOINT LeftArm
              {
                OFFSET 16.318199 0.000061 0.000000
                CHANNELS 3 Zrotation Xrotation Yrotation
                JOINT LeftForeArm
                {
                  OFFSET 27.090099 0.000000 0.000000
                  CHANNELS 3 Zrotation Xrotation Yrotation
                  JOINT LeftHand
                  {
                    OFFSET 24.545099 0.000015 0.000000
                    CHANNELS 3 Zrotation Xrotation Yrotation
                    End Site
                    {
                      OFFSET 0.000000 0.000000 0.000000
                    }
                  }
                }
              }
            }
            JOINT Neck
            {
              OFFSET 5.022600 -0.026634 0.000000
              CHANNELS 3 Zrotation Xrotation Yrotation
              JOINT Head
              {
                OFFSET 6.693640 0.000029 0.000000
                CHANNELS 3 Zrotation Xrotation Yrotation
                End Site
                {
                  OFFSET 0.000000 0.000000 0.000000
                }
              }
            }
          }
        }
      }
    }
  }
}
MOTION
Frames: 11
Frame Time: 0.041667
0.0 -94.275002 1.1545357943891033e-14 34.537003000000006 67.6679 -28.98100299999998 -166.641006 -20.490101 96.882797 -6.49576 28.0343 -3.13924 69.648201 7.2258 0.643034 18.667801 -8.58171 8.55386 172.102005 -26.8601 88.264198 -3.31336 3.94041 -1.17947 69.598198 -4.12858 0.545099 23.9471 0.84775 4.68091 -2.44026 7.36392 -87.146896 12.2096 -3.50002 6.08391 0.528421 -3.2294 6.23137 -21.968 -5.16475 4.75442 -1.95536 -5.16475 4.75441 61.799599 -44.412998 -145.100998 46.299099 -4.09255 11.3462 -6.01702 -24.659201 -13.9218 -19.2509 0.038171 -14.2134 -80.699898 -10.2322 88.791496 -57.194401 -6.02948 19.2125 12.3517 30.1702 -20.2631 0.748833 -0.289898 -11.6778 -17.2904 7.74785 -32.6507 -3.12324 7.25192 18.8522
-0.702297 -94.300003 0.11700400000001154 33.62699900000002 69.803802 -27.725998000000022 -168.332001 -19.8179 95.0103 -5.62482 24.7584 -2.26854 69.125099 6.89868 0.212596 19.8428 -7.88279 8.77005 171.649994 -23.9018 87.609398 -5.47684 1.72648 -0.941774 70.237396 -4.27617 0.208157 24.0047 0.876595 4.41374 -2.35406 7.30582 -87.369003 12.3228 -3.43047 5.64008 0.643512 -3.17932 5.78503 -21.8636 -4.96545 4.35113 -1.85096 -4.96544 4.35113 64.511398 -43.126801 -142.171005 46.082199 -5.49914 10.0317 -2.40092 -23.268101 -14.1963 -21.829599 -0.076549 -11.7505 -80.303001 -13.0306 90.295502 -56.018799 -4.43351 17.522499 12.1775 29.193001 -20.6075 -1.88695 -0.119584 -11.3526 -15.9123 7.41997 -29.946699 -2.77772 7.37285 17.4121
-1.594099 -94.291 0.4820250000000115 31.520996000000018 73.242599 -25.466003000000008 -170.259003 -17.109301 92.9571 -6.42322 20.723499 -1.49516 69.077103 6.96452 0.202695 21.3678 -7.11145 9.46342 171.496994 -19.2796 87.246002 -8.43237 -1.54153 -0.703062 70.951103 -4.6364 -0.709574 23.951401 0.876183 4.50956 -2.27451 7.20077 -87.729599 12.5296 -3.43787 4.93364 0.853274 -3.2177 5.07978 -21.6719 -4.76072 3.67386 -1.65923 -4.76072 3.67386 67.834198 -40.280602 -139.231003 45.625 -7.69534 7.6273 3.08944 -26.226101 -13.7995 -26.5142 -0.396934 -9.78832 -79.317101 -17.9646 93.316498 -53.148399 -2.58589 15.2196 11.3244 27.3909 -20.169399 -1.1603 -0.173208 -11.9762 -13.6065 7.36764 -24.3976 -2.97021 7.81192 14.438
-2.580997 -94.235001 1.0360110000000116 23.843002000000013 76.148499 -17.709000000000007 -172.046997 -15.1275 91.1968 -7.3001 15.7525 -0.42956 68.988899 6.99481 -0.280122 22.101299 -7.45039 11.8871 171.001007 -15.2596 86.672897 -11.608 -5.33602 -0.210938 72.089798 -5.37021 -1.1421 23.2094 1.02549 4.9315 -2.02605 7.2533 -88.176399 12.4129 -3.15931 4.00313 0.739175 -2.98022 4.13809 -21.798 -4.21584 2.8691 -1.78537 -4.21582 2.8691 72.0233 -36.364799 -135.375 46.213902 -7.59048 6.40267 2.31491 -27.6017 -15.7475 -26.4317 -0.754041 -8.34129 -78.1092 -24.3986 96.339996 -49.1315 -0.646154 12.282 10.5271 24.382999 -20.057301 -2.84157 -0.050106 -13.1862 -9.69645 6.40645 -18.4037 -5.04367 7.11281 12.5505
-3.687798 -93.818001 1.8040160000000116 15.90400700000001 77.15540300000002 -9.882003999999997 -173.544006 -13.8453 90.170403 -8.65429 11.571 0.863054 68.687897 8.3535 -0.324437 24.067801 -6.65434 13.6582 170.285995 -12.0882 86.2099 -15.871 -7.99538 0.711222 74.2416 -6.43246 -0.910068 22.6066 0.932623 6.40435 -1.84832 7.5547 -88.654404 11.8004 -3.0434 3.00545 0.129268 -2.90824 3.13641 -22.4207 -3.80571 1.95159 -2.40803 -3.80571 1.95159 76.098801 -31.9809 -131.541 46.249001 -9.5412 3.27126 2.60483 -25.678499 -14.9609 -26.9151 -0.641825 -8.30223 -76.511497 -31.799 99.522697 -44.026699 0.946623 8.96981 10.5269 22.9515 -20.787001 -3.42081 -0.002082 -14.0147 -5.39217 6.22411 -10.9695 -5.46821 6.94553 9.25511
-4.519197 -93.422997 2.8460080000000114 12.960999000000013 77.45030200000001 -8.378006000000008 -175.688004 -4.52803 90.568298 -24.276899 5.33198 2.43682 71.127899 8.5289 -4.0881 23.532801 -6.70619 12.6402 170.192001 -10.5032 87.332497 -17.605101 -8.12302 2.04965 75.146599 -6.87494 -0.235878 21.741301 0.890938 7.90299 -1.65339 7.92511 -89.362999 11.0441 -2.996 1.55607 -0.62452 -2.92462 1.68648 -23.185699 -3.325 0.582903 -3.17304 -3.325 0.582899 80.463997 -26.27 -127.466003 46.2033 -12.1355 -0.523284 5.10678 -25.1908 -13.5037 -27.3225 -0.291802 -9.81785 -75.211998 -41.126301 101.483002 -37.629601 2.97403 6.13677 9.73195 18.7096 -22.283501 -0.396541 -0.230892 -12.6535 -1.36566 6.14519 -1.85937 -6.48853 6.15075 4.99564
-5.119799 -94.278999 3.4290160000000114 10.83200099999999 78.234398 -5.938995000000009 -179.169998 6.11374 87.793198 -38.479 -8.76778 5.33346 72.052002 0.556912 -25.996099 13.4324 -13.1345 10.8612 170.414001 -11.7969 87.635399 -12.5805 -7.35059 1.88781 72.4664 -6.45512 0.897873 22.543699 0.345708 9.65732 -1.29105 8.18973 -89.8339 10.5012 -2.49532 0.553129 -1.16749 -2.46856 0.662483 -23.721901 -2.54613 -0.222886 -3.70923 -2.54613 -0.222888 83.522697 -21.4189 -124.713997 46.8158 -10.9239 -2.32438 3.3024 -24.050301 -14.8737 -25.209801 -0.345211 -9.52733 -74.489601 -49.1497 102.200996 -32.852402 4.52472 3.64139 8.81942 15.4786 -23.007401 0.530148 -0.246956 -10.4598 0.507723 5.89271 4.91722 -6.89857 5.08169 1.32827
-5.435398 -93.952003 3.5720210000000114 -2.083999999999996 79.462997 8.339004999999988 -178.231003 10.3882 84.7687 -34.273499 -2.04781 1.82299 69.540901 2.8741 -14.4309 19.1329 -8.95842 10.3115 170.682999 -7.46235 86.434196 -18.2334 -10.3494 0.822339 74.1091 -6.89168 0.308038 22.8291 0.62777 7.7283 -0.730536 8.341 -90.187103 10.1912 -1.54096 -0.240871 -1.47882 -1.55007 -0.172808 -24.0203 -1.39732 -0.69294 -4.00765 -1.39731 -0.692937 86.536003 -14.9055 -122.850998 48.925598 -10.4954 -5.19984 3.23149 -22.5632 -13.7048 -25.3465 -0.285413 -9.37134 -74.185402 -57.0555 102.227997 -28.462299 5.11587 2.65592 7.55047 13.2317 -22.171499 0.858147 -0.265883 -10.6491 1.31697 5.8508 13.5484 -6.72246 3.87359 -3.46239
-5.624598 -93.405998 2.4450070000000115 -8.875000000000004 79.69499999999998 15.582992999999968 -178.153 11.3492 82.0205 -21.5322 7.54046 -0.651156 65.4506 4.87576 -0.64064 19.4723 -7.80881 7.89772 171.007004 -6.36189 86.321404 -21.0646 -10.4218 0.251325 76.252899 -7.61253 0.429799 23.862101 -0.159678 10.7012 0.156923 8.47026 -90.500702 9.9327 0.085359 -1.00058 -1.73864 0.041254 -1.00337 -24.271099 0.382121 -0.928669 -4.25841 0.382116 -0.928674 90.9011 -11.6314 -114.113998 51.410198 -12.2038 -8.01955 3.41661 -23.950001 -14.7321 -26.777399 -0.401129 -8.98799 -81.168701 -64.120499 92.821297 -22.1586 7.18542 3.02074 5.26885 11.5244 -20.0453 -1.03763 -0.14463 -9.01157 0.887941 3.25031 19.1278 -6.31229 0.656214 -7.16094
-5.930199 -93.004997 -0.13299599999998862 -14.328003 80.38919799999998 20.304992999999985 -179.451996 11.6389 81.226402 -9.19501 8.38158 -1.19771 63.5448 4.46395 0.029999 19.553801 -7.60094 7.47041 171.645004 -7.78358 87.322098 -20.1954 -10.1039 0.024363 77.251801 -8.02278 0.682841 24.816 -0.244059 9.77415 1.07199 8.43521 -90.364403 10.0124 1.97067 -0.885739 -1.65747 1.92978 -0.97165 -24.2041 2.14574 -0.252297 -4.19147 2.14574 -0.252307 92.509598 -18.121099 -106.274002 48.102299 -13.1018 -9.58145 2.96595 -24.295 -16.162201 -26.149099 -0.123191 -10.5903 -88.794601 -61.523602 82.554604 -21.931 6.9644 3.57466 4.24359 13.4904 -15.9001 -1.15982 -0.145208 -9.39389 -0.862898 -0.34626 13.8603 -4.98541 -2.02244 -5.67327
-6.381899 -92.294998 -3.5669859999999884 -33.64399699999997 79.985802 38.610001000000004 -179.197006 14.8297 81.8386 -7.75279 7.36322 -1.94371 63.889301 4.19089 0.752331 18.7999 -7.97293 7.15907 172.561005 -8.81874 88.230598 -20.882299 -11.6308 -0.726366 78.970001 -9.03304 1.11188 25.6791 -0.133706 7.70379 1.7136 8.40929 -90.153297 10.0666 3.3451 -0.58282 -1.60017 3.31621 -0.729644 -24.170099 3.36542 0.450648 -4.1574 3.36543 0.450643 92.586403 -24.7307 -103.379997 43.608101 -13.4673 -12.3122 2.32682 -22.799101 -17.237301 -25.552999 -0.156945 -10.0878 -90.988701 -59.110802 79.184998 -21.713499 7.43362 3.52034 2.91418 14.2285 -12.573 -2.02737 -0.104388 -8.78178 -0.494041 -1.60947 9.98054 -4.26022 -2.84758 -4.79171
